/* XPM */
static char * C:\cygwin64\home\thomc\Workspace\mindset_pacman\art\font8x8_xpm[] = {
"2048 8 2 1",
" 	c #FFFFFF",
".	c #000000",
"                                                                                                                                                                  ....    ....                                                                                                  .....                     .. ..   .. .. .......    ......   .........    .......   ......                          ...      ..    .....   ......    ...  ......    ....  .......  ....    .....        .        ........       ..........                  ...   ......    ....  .....    ...... .......   ..... ..   ..  ......      .. ..   ..  ..     ..   .. ..   ..  .....  ......   .....  ......   ....    ...... ..   .. ..   .. ..   .. ..   ..  ..  .. .......    ...   ....                                         .         .......        ........             ...        ........           .....            ....                                                                                                                                                           .   ......  ......  ......  ..   ..   .   ..        ...   ..       .....  ..       .....  ..   ..   ..                               . ..      .....                 .....     ......                ......    ......                .....     ... ..                ......    ......                ......     .....                .....     ......                ..            .                   ............   .. ...  ... ..                                                                                                                                                                                                                 ....        ....    .  ..  .        .  ..  .        .  ..  .           ..       ................                                      .  .                                                         .        .      .        .                   .  .        .  .                                   .        .                      .        .   ................                                ",
"                                                                                                                                                                 ......  ......                                                                                                 .....                     .. ..   .. .. ........   .......  ..........  ........  ........                        .  ..    ...   ..   ..     ..    ....  ..       ..     ..   .. ..   .  ..   ..      .                .       ..       .                 .. ..  ..   ..  ..  .. ..  ..   ..     ..       ..     ..   ..    ..        .. ..  ..   ..     ... ... ...  .. ..   .. ..   .. ..   .. ..   .. ..  ..     ..   ..   .. ..   .. ..   .. ... ...  ..  ..     ...    ...  .    .                                        .         .......        ........             ...        ........           .....           .....                                                                                                                                                          ..  .    .  . .     . .   . .  . .  . ..  .  .      .   . .  .         .  .  .      .     .  . .  . .  .                              . ...     .... .                ....       .....                ......    ......                .....     ......                ......    ......             .  ......     .....                 ...       ... .                .             .                   ............   .   ..  ..   .                                                                                                                                                                                                                     ..    ..        .  ..  .        .  ..  .        .  ..  .           ..                                                             .  .                                                         .        .      .        .                      .        .                                      .        .                      .        .                                                   ",
"                                                                                                                                                   ..      ..   ................                                                                                             .......                       .  .    .  . ..    ..        ..  ..  ..  ..  ..        ..    ..                       ..   ..    ..       ...    ..    .. ..  ......  ..          ..  ...  .  ..   ..     .                 .       ..       .                ..   .. ..   .. ..      ..   ..  ..     ..      ..      ..   ..    ..        .. .. ..    ..     ....... .... .. ..   .. ..   .. ..   .. ..   .. ..         ..   ..   .. ..   .. .. . ..  .....   ..  ..    ...    ...  .  ..  .....  .....  ....                      . ....    .........      ........     ...     ...        ........   ....    .....         .......                                                                                                                                                           .  .   .   . ....  .    .  .  . .  .  .  .  .      .   . .  .        .   .  .      ....  .  . .  . .  .                              .....     .... .               .....       ..... ..             ......    .......              .......    .. ....               .....      ........           ........     .....                 ..         .. ..            ...              .                  ..............                                                                                                                                                                                                                                       .  .          .  ..  .        .  ..  .        .  ..  .           ..                                                           ..    ..                                                       .        .     .          .                     .        .                                      .        .                     .          .                                                  ",
"                                                                                                                                   ..      ..     ....    ....  ................                                                                                            .......                       .  .    .  .  ..    ..  ........  ..  ..  ..  ..        ..    ..                       ..   ..    ..     ....    ....  ..  ..       .. ......     ..    ....    ......    .      ...         .       ..       .                ..   .. ......  ..      ..   ..  .....  ......  ..  ... .......    ..        .. ....     ..     ....... ....... ..   .. ..   .. ..   .. ..   ..  .....     ..   ..   .. ... ... .......   ...     ....    ...     ..   . .    ..   .   .   .                            ....           ...                  ...                           .....                                                                                                                                                                                   .  .    .  .     . .    .  .  . .  .  .  .  .         .  .  .         .  .  .          . .  . .  . .  .                              .....      ... ....         ......          .........          ......      ..... ..          .. ......    .. ... ...            .....      ......               .....       ....               . .           . . ..         ..  .             .                  ..............                                                                                                                                                                                                                                 ...   .  .   ...    .  ..  .       .   ..   .      .   ..   .   ...    ..    ...................                                ....        ....                ................                   .        .   ..            ..                ....        ....                     ......         .      .                    ..            ..     ......                                     ",
"                                                                                                                                   ..      ..     ....    ....  ................                                                                                           .......                                      ..    ..  ........  ..  ..  ..  ..        ..    ..                       ..   ..    ..    ....        .. .......      .. ..   ..   ..    .  ....      ..   .                   .       ..       .                ....... ..   .. ..      ..   ..  ..     ..      ..   .. ..   ..    ..        .. .....    ..     .. . .. .. .... ..   .. ......  .. .... .....        ..    ..   ..   ..  .....  .......  .....     ..    ...      .    . .    .....    .    ...                         .....          ....                 ...        .                  .....                                                                                                                                                                                   .  .     . .     . .   .   .  . .  .  .  .  .        .   .  .          . .  .          . .  . .  . .  .                              .....           ....       .......           ... ...           ......      .........        ..........    ...........      ... .....        ......             ......       .....   .     .   ..               ....         ......            .       ....       ..............                                                                                                                                                                                                                                    .   ..   .       .  ..  .    ...   .  .   ......    ..    ...   .   ..   .                   ................................                ....        ....                ..            ..   .        .                   ....        ....                ................    .      .         ......     ..            ..                    .      .                                    ",
"                                                                                                                                                   ..      ..   ................                                                                                             ...                 ..                     ..    ..  ..    ..  ..  ..  ..  ..        ..    ..                        ..  .     ..   ...     ..   ..     ..  ..   .. ..   ..   ..    .    ..     ..   .                    .       ..       .                ..   .. ..   ..  ..  .. ..  ..   ..     ..       ..  .. ..   ..    ..   ..   .. .. ...   ..     ..   .. ..  ... ..   .. ..      ..  ..  .. ...  ..   ..    ..   ..   ..   ...   ... ... ... ...    ..   ...            .  ..  ..       .       .                        ......         ......               ...        ...                .....                                                                                                                                                                                   .  . .   . . .   . .   .   .  . .  .  .  .  .       .    .  .      .   . .  .      .   . .  . .  . .  .                              ....            .....     ......               .....        .......          .......        .. .......    ............    .........          .. ....         .......         .....  .     .  ...               ....         .....             .     ........     ..............                                                                                                                                                                                                                 ................    .  ..  .        .  ..  .          .  .             ..           .  ..  .                                                                        ..    ..                      .          .     .        .                      .        .                   .              .   .        .                     .          .                     .        .                                   ",
"                                                                                                                                                                 ......  ......                                                                                                .                 ..                     ..    ..  ........  ..  ..  ..  ........  ........                         ...    ...... .......  .....      ..   .....   .....    ..     .....   ....   .                     .       ..       .                ..   .. ......    ....  .....    ...... ..        ..... ..   ..  ......  .....  ..  ...  ...... ..   .. ..   ..  .....  ..       .... . ..  ...  .....     ..    .....     .    ..   .. ..   ..    ..   .......  .      .    . .       .   ....                         .......        ........             ...        ........           .....               .                                                                                                                                                                  ...  . ...   . ...   .  .    ..   ..  ...  ..       .....  ..        ...   ..        ...   ..   ..   ..                          ...                  .....     ......                .....      .....                ....        . .......      ...........    ......                .....       ......             ......     ......                ...         ....               .   ..........    ..............                                                                                                                                                                                                                 ................    .  ..  .        .  ..  .        ..    ..           ..           .  ..  .                                                                          .  .                         .        .      .        .                      .        .                   .              .   .        .                      .        .                      .        .                                   ",
"                                                                                                                                                                  ....    ....                                                                                                                                          ..    ..  ........  ..  ..  ..   .......   ......                                                                                                                              ..........       ........                                                                                                                                                                                                                                  ....                                 .         .......        ........             ...        ........           .....              ..                                                                                                                                                                                                                                                                                                  ... ..                .....     ......                ......    ......                .....      .. ..                ......    ......                .....       ....                .....     ......                .             .                   ............   ..............                                                                                                                                                                                                                                     .  ..  .        .  ..  .    ....        ....       ..           .  ..  .                    ................                                      .  .                         .        .      .        .                   .  .        .  .                ................   .        .                      .        .                      .        .                                   "};
